<?xml version="1.0" encoding="utf-8"?>
<!-- Generator: Adobe Illustrator 16.0.0, SVG Export Plug-In . SVG Version: 6.00 Build 0)  -->
<!DOCTYPE svg PUBLIC "-//W3C//DTD SVG 1.1//EN" "http://www.w3.org/Graphics/SVG/1.1/DTD/svg11.dtd">
<svg version="1.1" id="Layer_1" xmlns="http://www.w3.org/2000/svg" xmlns:xlink="http://www.w3.org/1999/xlink" x="0px" y="0px"
	 width="598.885px" height="94.6px" viewBox="312.889 237.118 598.885 94.6" enable-background="new 312.889 237.118 598.885 94.6"
	 xml:space="preserve">
<g>
	<path fill="#FFFFFF" d="M376.889,238.411h-5.603c-3.448,0-5.387,1.939-5.387,5.387v31.461
		c-5.387-7.758-13.145-10.989-21.764-10.989c-18.532,0-31.246,14.869-31.246,33.616c0,18.746,12.714,33.615,31.246,33.615
		c8.62,0,16.377-3.232,21.764-10.99v4.311c0,3.447,1.939,5.389,5.387,5.389h5.603c3.448,0,5.387-1.939,5.387-5.389v-81.023
		C382.276,240.35,380.337,238.411,376.889,238.411z M347.367,317.926c-11.637,0-18.101-9.051-18.101-20.041
		c0-10.989,6.68-20.041,18.101-20.041c11.205,0,18.963,8.404,18.963,20.041C366.114,309.307,358.572,317.926,347.367,317.926z"/>
	<path fill="#FFFFFF" d="M408.565,237.118c-6.249,0-10.344,4.094-10.344,9.481c0,5.387,4.095,9.481,10.344,9.481
		s10.344-4.095,10.344-9.481C418.909,241.428,414.814,237.118,408.565,237.118z"/>
	<path fill="#FFFFFF" d="M411.367,265.778h-5.604c-3.447,0-5.388,1.939-5.388,5.387v53.656c0,3.447,1.939,5.389,5.388,5.389h5.604
		c3.447,0,5.387-1.939,5.387-5.389v-53.656C416.754,267.717,414.814,265.778,411.367,265.778z"/>
	<path fill="#FFFFFF" d="M462.87,292.713l-8.621-3.017c-3.447-1.077-6.68-3.018-6.68-6.25c0-3.663,3.018-6.68,7.758-6.68
		c2.586,0,5.172,0.646,6.895,3.017c1.939,2.155,3.664,3.232,6.682,2.586l3.016-0.863c3.449-0.86,5.389-3.446,3.232-6.895
		c-4.525-7.542-11.852-10.343-20.039-10.343c-13.361,0-22.627,8.403-22.627,19.823c0,10.561,8.836,15.517,17.023,18.103l8.188,3.017
		c4.094,1.51,6.896,3.232,6.896,6.682c0,4.094-3.879,7.109-9.48,7.109c-4.525,0-8.404-1.723-10.561-4.523
		c-2.154-2.371-3.664-3.879-6.68-3.018l-3.232,0.861c-3.447,0.861-5.172,3.232-3.447,6.68c4.311,8.404,13.359,12.715,24.135,12.715
		c13.145,0,24.564-6.896,24.564-19.824C479.676,304.35,475.797,296.809,462.87,292.713z"/>
	<path fill="#FFFFFF" d="M534.625,306.075h-6.68c-1.939,0-2.586,1.076-2.369,3.23c0.215,0.861,0.215,1.725,0.215,2.371
		c0,3.879-3.018,6.248-6.465,6.248s-6.25-2.369-6.25-8.188V278.06h15.947c1.938,0,3.016-1.077,3.016-3.017v-6.681
		c0-1.724-1.076-3.017-3.016-3.017h-15.947v-13.36c0-2.585-1.508-4.094-4.094-4.094h-4.525c-2.369,0-4.094,1.293-4.525,3.879
		l-2.369,13.792h-7.758c-1.939,0-3.018,1.077-3.018,3.018v6.68c0,1.939,1.078,3.017,3.018,3.017h7.111v31.03
		c0,17.24,10.773,22.195,21.332,22.195c12.068,0,20.473-6.248,20.473-18.314c0-0.434-0.217-2.588-0.646-4.742
		C537.428,306.721,536.135,306.075,534.625,306.075z"/>
	<path fill="#FFFFFF" d="M585.266,264.485c-0.646-0.215-1.939-0.215-2.586-0.215c-6.68,0-14.867,4.74-17.023,15.73v-8.836
		c0-3.447-1.939-5.387-5.387-5.387h-5.389c-3.447,0-5.387,1.939-5.387,5.387v53.656c0,3.447,1.939,5.389,5.387,5.389h5.604
		c3.447,0,5.389-1.939,5.389-5.389v-20.039c0-21.119,9.051-24.781,15.299-24.781c1.078,0,2.154,0.215,3.232,0.431
		c2.371,0.43,3.879-1.078,3.879-4.31v-6.25C588.499,267.071,588.067,264.7,585.266,264.485z"/>
	<path fill="#FFFFFF" d="M607.03,237.118c-6.248,0-10.344,4.094-10.344,9.481c0,5.387,4.096,9.481,10.344,9.481
		c6.25,0,10.344-4.095,10.344-9.481C617.374,241.428,613.28,237.118,607.03,237.118z"/>
	<path fill="#FFFFFF" d="M610.047,265.778h-5.818c-3.447,0-5.387,1.939-5.387,5.387v53.656c0,3.447,1.939,5.389,5.387,5.389h5.604
		c3.447,0,5.387-1.939,5.387-5.389v-53.656C615.219,267.717,613.28,265.778,610.047,265.778z"/>
	<path fill="#FFFFFF" d="M666.29,278.061c1.508,0,6.25,0.215,11.205,2.586c3.232,1.508,5.387,1.293,7.543-1.293l1.508-1.939
		c2.154-2.801,1.725-5.603-1.293-7.541c-7.111-4.095-14.223-5.388-19.824-5.388c-23.059,0-36.633,15.3-36.633,34.048
		c0,18.314,14.221,32.969,36.633,32.969c5.172,0,11.852-1.078,18.316-4.523c4.094-2.156,4.74-5.389,2.801-8.189l-1.508-1.939
		c-1.939-2.586-4.311-2.801-7.543-1.293c-4.74,2.371-9.697,2.588-11.205,2.588c-12.283,0-21.334-8.189-21.334-20.041
		C645.172,286.249,654.006,278.061,666.29,278.061z"/>
	<path fill="#FFFFFF" d="M744.729,306.075h-6.896c-1.939,0-2.586,1.076-2.371,3.23c0.215,0.861,0.215,1.725,0.215,2.371
		c0,3.879-3.016,6.248-6.465,6.248c-3.447,0-6.248-2.369-6.248-8.188V278.06h15.945c1.939,0,3.018-1.077,3.018-3.017v-6.681
		c0-1.724-1.078-3.017-3.018-3.017h-15.945v-13.36c0-2.585-1.51-4.094-4.094-4.094h-4.525c-2.371,0-4.096,1.293-4.525,3.879
		l-2.369,13.792h-7.758c-1.939,0-3.018,1.077-3.018,3.018v6.68c0,1.939,1.076,3.017,3.018,3.017h7.109v31.03
		c0,17.24,10.775,22.195,21.334,22.195c12.066,0,20.473-6.248,20.473-18.314c0-0.434-0.217-2.588-0.646-4.742
		C747.528,306.721,746.235,306.075,744.729,306.075z"/>
	<path fill="#FFFFFF" d="M796.014,239.918c-24.135,0-38.789,20.473-38.789,45.899c0,25.212,14.654,45.685,38.789,45.685
		s39.002-20.473,39.002-45.685C835.016,260.391,819.932,239.918,796.014,239.918z M796.014,253.709
		c5.818,0,10.773,2.586,14.652,6.681l-35.555,38.788c-1.293-4.096-1.939-8.62-1.939-13.576
		C773.172,267.933,781.792,253.709,796.014,253.709z M796.014,317.711c-5.389,0-10.129-2.156-13.576-5.604l35.125-38.357
		c1.076,3.664,1.508,7.758,1.508,12.283C818.856,303.488,810.022,317.711,796.014,317.711z"/>
	<path fill="#FFFFFF" d="M910.223,323.528l-22.195-26.72l20.041-24.351c3.016-3.449,1.508-6.681-3.232-6.681h-6.033
		c-2.803,0-4.742,1.077-6.682,3.231l-14.867,17.67l-14.869-17.67c-1.725-2.154-3.879-3.231-6.465-3.231h-6.033
		c-4.742,0-6.035,3.017-3.232,6.681l20.041,24.351l-22.195,26.72c-3.018,3.447-1.508,6.682,3.018,6.682h6.033
		c2.801,0,4.74-0.863,6.68-3.018l17.023-20.258l16.809,20.258c1.939,2.154,3.879,3.018,6.682,3.018h6.033
		C911.731,329.993,913.239,326.977,910.223,323.528z"/>
</g>
</svg>
