<?xml version="1.0" encoding="utf-8"?>
<!-- Generator: Adobe Illustrator 16.0.0, SVG Export Plug-In . SVG Version: 6.00 Build 0)  -->
<!DOCTYPE svg PUBLIC "-//W3C//DTD SVG 1.1//EN" "http://www.w3.org/Graphics/SVG/1.1/DTD/svg11.dtd">
<svg version="1.1" id="Layer_1" xmlns="http://www.w3.org/2000/svg" xmlns:xlink="http://www.w3.org/1999/xlink" x="0px" y="0px"
	 width="852.704px" height="205.739px" viewBox="59.07 189.805 852.704 205.739"
	 enable-background="new 59.07 189.805 852.704 205.739" xml:space="preserve">
<g>
	<path fill="#2C398F" d="M376.889,238.411h-5.603c-3.448,0-5.387,1.939-5.387,5.387v31.461c-5.387-7.758-13.145-10.99-21.764-10.99
		c-18.532,0-31.246,14.869-31.246,33.616c0,18.747,12.714,33.616,31.246,33.616c8.62,0,16.377-3.232,21.764-10.99v4.31
		c0,3.448,1.939,5.388,5.387,5.388h5.603c3.448,0,5.387-1.939,5.387-5.388v-81.023C382.276,240.35,380.337,238.411,376.889,238.411z
		 M347.367,317.926c-11.637,0-18.101-9.051-18.101-20.04c0-10.99,6.68-20.041,18.101-20.041c11.205,0,18.963,8.404,18.963,20.041
		C366.114,309.307,358.572,317.926,347.367,317.926z"/>
	<path fill="#2C398F" d="M408.565,237.118c-6.249,0-10.343,4.094-10.343,9.481s4.094,9.482,10.343,9.482s10.344-4.095,10.344-9.482
		C418.909,241.428,414.814,237.118,408.565,237.118z"/>
	<path fill="#2C398F" d="M411.367,265.778h-5.603c-3.448,0-5.388,1.939-5.388,5.387v53.656c0,3.448,1.939,5.388,5.388,5.388h5.603
		c3.447,0,5.387-1.939,5.387-5.388v-53.656C416.754,267.717,414.814,265.778,411.367,265.778z"/>
	<path fill="#2C398F" d="M462.869,292.714l-8.62-3.017c-3.447-1.078-6.68-3.018-6.68-6.25c0-3.663,3.017-6.68,7.757-6.68
		c2.586,0,5.172,0.646,6.896,3.017c1.939,2.155,3.663,3.232,6.68,2.585l3.017-0.862c3.448-0.861,5.388-3.447,3.232-6.895
		c-4.525-7.542-11.852-10.343-20.04-10.343c-13.36,0-22.627,8.404-22.627,19.824c0,10.56,8.836,15.516,17.024,18.102l8.188,3.017
		c4.094,1.509,6.896,3.232,6.896,6.681c0,4.094-3.879,7.11-9.481,7.11c-4.525,0-8.404-1.724-10.559-4.524
		c-2.155-2.371-3.664-3.879-6.681-3.018l-3.232,0.862c-3.448,0.862-5.172,3.232-3.448,6.68c4.311,8.404,13.36,12.714,24.135,12.714
		c13.146,0,24.566-6.896,24.566-19.824C479.677,304.35,475.798,296.809,462.869,292.714z"/>
	<path fill="#2C398F" d="M534.626,306.074h-6.68c-1.939,0-2.586,1.077-2.37,3.232c0.215,0.861,0.215,1.724,0.215,2.37
		c0,3.879-3.017,6.249-6.465,6.249c-3.447,0-6.249-2.37-6.249-8.188v-31.677h15.946c1.939,0,3.017-1.077,3.017-3.017v-6.68
		c0-1.724-1.077-3.017-3.017-3.017h-15.946v-13.36c0-2.585-1.508-4.094-4.094-4.094h-4.525c-2.37,0-4.095,1.293-4.525,3.879
		l-2.37,13.792h-7.758c-1.939,0-3.017,1.077-3.017,3.017v6.68c0,1.939,1.077,3.017,3.017,3.017h7.111v31.031
		c0,17.239,10.774,22.195,21.333,22.195c12.067,0,20.472-6.249,20.472-18.316c0-0.432-0.216-2.586-0.646-4.741
		C537.428,306.721,536.135,306.074,534.626,306.074z"/>
	<path fill="#2C398F" d="M585.266,264.485c-0.646-0.215-1.939-0.215-2.586-0.215c-6.68,0-14.868,4.741-17.023,15.73v-8.835
		c0-3.448-1.939-5.387-5.387-5.387h-5.388c-3.447,0-5.387,1.939-5.387,5.387v53.656c0,3.448,1.939,5.388,5.387,5.388h5.603
		c3.448,0,5.388-1.939,5.388-5.388v-20.04c0-21.118,9.051-24.781,15.3-24.781c1.077,0,2.154,0.215,3.232,0.431
		c2.37,0.43,3.879-1.078,3.879-4.31v-6.249C588.498,267.071,588.067,264.7,585.266,264.485z"/>
	<path fill="#2C398F" d="M607.03,237.118c-6.249,0-10.344,4.094-10.344,9.481s4.095,9.482,10.344,9.482s10.344-4.095,10.344-9.482
		C617.374,241.428,613.279,237.118,607.03,237.118z"/>
	<path fill="#2C398F" d="M610.047,265.778h-5.818c-3.447,0-5.387,1.939-5.387,5.387v53.656c0,3.448,1.939,5.388,5.387,5.388h5.604
		c3.447,0,5.387-1.939,5.387-5.388v-53.656C615.219,267.717,613.279,265.778,610.047,265.778z"/>
	<path fill="#2C398F" d="M666.29,278.061c1.508,0,6.249,0.215,11.205,2.586c3.232,1.508,5.387,1.293,7.542-1.293l1.509-1.939
		c2.154-2.801,1.724-5.603-1.293-7.542c-7.111-4.094-14.223-5.387-19.825-5.387c-23.058,0-36.633,15.3-36.633,34.047
		c0,18.316,14.222,32.97,36.633,32.97c5.172,0,11.852-1.078,18.316-4.525c4.095-2.155,4.741-5.388,2.802-8.188l-1.509-1.939
		c-1.939-2.586-4.31-2.802-7.542-1.293c-4.741,2.37-9.697,2.586-11.206,2.586c-12.282,0-21.333-8.188-21.333-20.04
		C645.172,286.249,654.007,278.061,666.29,278.061z"/>
	<path fill="#2C398F" d="M744.728,306.074h-6.896c-1.939,0-2.586,1.077-2.371,3.232c0.216,0.861,0.216,1.724,0.216,2.37
		c0,3.879-3.017,6.249-6.465,6.249c-3.447,0-6.249-2.37-6.249-8.188v-31.677h15.946c1.939,0,3.017-1.077,3.017-3.017v-6.68
		c0-1.724-1.077-3.017-3.017-3.017h-15.946v-13.36c0-2.585-1.509-4.094-4.094-4.094h-4.525c-2.371,0-4.095,1.293-4.525,3.879
		l-2.37,13.792h-7.758c-1.939,0-3.017,1.077-3.017,3.017v6.68c0,1.939,1.077,3.017,3.017,3.017h7.11v31.031
		c0,17.239,10.775,22.195,21.334,22.195c12.067,0,20.472-6.249,20.472-18.316c0-0.432-0.216-2.586-0.646-4.741
		C747.528,306.721,746.235,306.074,744.728,306.074z"/>
	<path fill="#2C398F" d="M796.014,239.919c-24.135,0-38.788,20.472-38.788,45.899c0,25.212,14.653,45.684,38.788,45.684
		s39.003-20.472,39.003-45.684C835.017,260.391,819.933,239.919,796.014,239.919z M796.014,253.71c5.818,0,10.774,2.586,14.653,6.68
		l-35.556,38.788c-1.293-4.095-1.939-8.62-1.939-13.576C773.172,267.933,781.791,253.71,796.014,253.71z M796.014,317.711
		c-5.388,0-10.128-2.155-13.576-5.604l35.125-38.356c1.077,3.663,1.508,7.757,1.508,12.282
		C818.855,303.488,810.021,317.711,796.014,317.711z"/>
	<path fill="#2C398F" d="M910.223,323.528l-22.195-26.72l20.04-24.351c3.017-3.448,1.509-6.68-3.232-6.68h-6.033
		c-2.802,0-4.741,1.077-6.681,3.232l-14.868,17.669l-14.869-17.669c-1.724-2.155-3.879-3.232-6.465-3.232h-6.033
		c-4.741,0-6.034,3.017-3.232,6.68l20.04,24.351l-22.195,26.72c-3.017,3.448-1.508,6.681,3.018,6.681h6.033
		c2.802,0,4.741-0.862,6.68-3.018l17.024-20.256l16.808,20.256c1.939,2.155,3.879,3.018,6.681,3.018h6.033
		C911.73,329.993,913.239,326.977,910.223,323.528z"/>
</g>
<g>
	<path fill="#2C398F" d="M67.017,342.061c-20.256-49.993,0-100.202,40.512-136.188c51.933-45.899,123.259,18.101,141.145,48.054
		c19.394,32.539,9.913,101.711-37.064,128.646C164.633,409.724,87.488,392.27,67.017,342.061z"/>
	<path fill="#04FFCC" d="M169.589,229.145c0.215,3.232-4.957,1.939-10.559,3.879c-6.249,2.155-10.774,0.216-10.99-3.017
		c-0.216-3.232,4.094-10.559,10.128-10.774C163.986,219.017,169.374,225.913,169.589,229.145z"/>
	<path fill="none" d="M248.889,254.142c-17.885-29.953-89.212-93.953-141.145-48.054c-40.728,35.987-60.768,86.196-40.512,136.189
		c0.431,1.293,1.077,2.586,1.724,3.879c0.646-1.509,1.724-3.018,2.802-4.311c10.343-10.559,21.979,11.206,46.33,23.704
		c16.162,8.404,25.428,19.394,28.014,29.091c23.057,2.802,46.761-0.862,65.508-11.637
		C258.801,355.852,268.283,286.68,248.889,254.142z"/>
	<path fill="#04FFCC" d="M118.087,365.549c-24.35-12.714-35.986-34.263-46.33-23.704c-1.293,1.293-2.155,2.586-2.802,4.311
		c13.36,27.798,44.391,44.605,77.36,48.7C143.3,384.728,134.249,373.737,118.087,365.549z"/>
	<path fill="#04FFCC" d="M256.431,274.397c-3.879-2.802-7.973-4.525-10.774-4.741c-7.542-0.431-13.36,9.912-9.481,24.997
		c3.448,13.575-0.862,25.428,6.68,25.858c3.232,0.216,8.404-1.724,13.36-5.387C259.017,301.117,259.017,286.68,256.431,274.397z"/>
	<path fill="none" d="M168.296,282.37c-27.151-15.515-49.778,24.351-22.842,39.865c12.498,7.111,27.367,4.311,30.384-11.636
		C177.347,301.334,176.485,286.896,168.296,282.37z"/>
	<path fill="#7DF8FB" d="M180.364,208.673v50.424c-7.542-4.31-16.162-6.896-25.428-6.896c-28.229,0-51.071,22.842-51.071,51.07
		c0,28.229,22.842,51.071,51.071,51.071c9.913,0,18.963-2.802,26.721-7.542c2.155,4.524,6.68,7.542,11.852,7.542l0,0
		c7.111,0,13.145-5.818,13.145-13.146V211.044c-6.68-4.741-14.007-9.051-21.549-12.499
		C182.087,200.916,180.364,204.579,180.364,208.673z M175.838,310.6c-2.801,15.946-17.886,18.747-30.384,11.636
		c-27.151-15.515-4.31-55.38,22.842-39.865C176.485,286.896,177.347,301.334,175.838,310.6z"/>
</g>
</svg>
